<?xml version="1.0" encoding="UTF-8"?>
<!DOCTYPE svg PUBLIC "-//W3C//DTD SVG 1.1//EN" "http://www.w3.org/Graphics/SVG/1.1/DTD/svg11.dtd">
<!-- Creator: CorelDRAW 2020 (64-Bit) -->
<svg xmlns="http://www.w3.org/2000/svg" xml:space="preserve" width="210mm" height="210mm" version="1.1" viewBox="0 0 21000 21000" xmlns:xlink="http://www.w3.org/1999/xlink" xmlns:xodm="http://www.corel.com/coreldraw/odm/2003" enable-background="new 0 0 512 512">
 <defs>
  
 </defs>
 <g id="&#x421;&#x43B;&#x43E;&#x439;_x0020_1">
  <metadata id="CorelCorpID_0Corel-Layer"/>
  <path class="fil0" d="M6499.15 11056.19c2380.49,0 4317.18,-1951.02 4317.18,-4349.15 0,-2398.13 -1936.68,-4349.15 -4317.18,-4349.15 -1153.17,0 -2242.98,454.74 -3068.68,1280.48 -825.71,825.73 -1280.48,1915.51 -1280.48,3068.68 0,1153.17 454.75,2242.98 1280.48,3068.69 825.73,825.71 1915.51,1280.48 3068.68,1280.48l0 -0.03zm3812.88 -4391.48c0,1704.69 -1461.02,3688.01 -3431.42,3865.69l-2.63 -1507.44c616.54,-86.92 1060.23,-731.24 1060.23,-1356.55 0,-793.49 -645.56,-1439.06 -1439.07,-1439.06 -264.5,0 -479.69,-215.19 -479.69,-479.69 0,-264.51 215.19,-479.7 479.69,-479.7 264.5,0 479.69,215.19 479.69,479.7l959.38 0.01c0,-625.35 -477.62,-1330.57 -1070.34,-1398.94l13.07 -1470.34c1830.27,94.92 3431.09,2081.62 3431.09,3786.32zm-4110.03 -3768.44l-2.62 1460.46c-693.27,60.41 -1139.29,765.59 -1139.29,1390.94 0,793.49 645.55,1439.06 1439.06,1439.06 264.51,0 479.7,215.19 479.7,479.69 0,264.51 -215.19,479.7 -479.7,479.7 -264.5,0 -479.69,-215.19 -479.69,-479.7l-959.37 -0.01c0,625.35 465.9,1253.78 1145.9,1361.85l-7.94 1522.62c-2107.28,-230.33 -3522.61,-2137.53 -3522.61,-3843.84 0,-1706.31 1467.55,-3766.18 3526.56,-3810.77z"/>
  <path class="fil0" d="M13694.45 13934.31l-3837.5 0 0 1918.74 -3837.49 0 0 2518.29 12503.82 0 0 -6355.78 -4828.83 0 0 1918.75zm637.91 620.7l3521.27 0 0 1298.04 -3521.27 0 0 -1298.04zm-3865.28 2l3227.37 0 0 1296.04 -3227.37 0 0 -1296.04zm-610.13 3214.79l-3237.95 0 0 -1287.13 3237.95 0 0 1287.13zm615.42 0l0 -1287.47 3222.08 0 0 1287.47 -3222.08 0zm3858.66 0l0 -1287.47 3523.34 0 0 1292.76 -3523.34 -5.29zm6.09 -5202.04l3513.36 0 0 1356.26 -3513.36 0 0 -1356.26z"/>
  <path class="fil0" d="M14157.25 8899.43c1396.28,-1997.32 2388.18,-3951.29 2917.21,-5163.83l450.53 876.26 670.05 -300.43 -928.28 -1922.33 -1879.55 912.55 341.97 713.83 813.96 -393.07c-452.6,1068.42 -1491.76,3350.2 -2845.23,5027.72 -2904.78,3544.51 -6874.66,5221.09 -11547.92,5461.46l0 454.02c3273.98,-84.67 8109.54,-868.68 12007.26,-5666.18z"/>
 </g>
</svg>
