<?xml version="1.0" encoding="UTF-8"?>
<!DOCTYPE svg PUBLIC "-//W3C//DTD SVG 1.1//EN" "http://www.w3.org/Graphics/SVG/1.1/DTD/svg11.dtd">
<!-- Creator: CorelDRAW 2020 (64-Bit) -->
<svg xmlns="http://www.w3.org/2000/svg" xml:space="preserve" width="210mm" height="210mm" version="1.1" viewBox="0 0 21000 21000" xmlns:xlink="http://www.w3.org/1999/xlink" xmlns:xodm="http://www.corel.com/coreldraw/odm/2003" data-name="Layer 1">
 <defs>
  
 </defs>
 <g id="&#x421;&#x43B;&#x43E;&#x439;_x0020_1">
  <metadata id="CorelCorpID_0Corel-Layer"/>
  <path class="fil0" d="M7702.3 3845.83c0,-741.04 -617.54,-1358.58 -1358.58,-1358.58 -741.04,0 -1358.57,592.84 -1358.57,1358.58 0,741.04 617.53,1358.57 1358.57,1358.57 741.04,0 1358.58,-617.53 1358.58,-1358.57zm-2074.92 0c0,-395.22 321.12,-716.34 716.34,-716.34 395.22,0 716.35,321.12 716.35,716.34 0,395.22 -321.13,716.34 -716.35,716.34 -395.22,0 -716.34,-321.12 -716.34,-716.34z"/>
  <path class="fil0" d="M18105.71 6612.35l-4786.7 -2779.37 -22.06 0 -22.06 0c-22.05,0 -44.11,-22.05 -44.11,-22.05l-22.07 0 -22.05 0c-22.06,0 -44.12,0 -66.18,0 0,0 0,0 -22.05,0l-22.06 0 -22.07 0 -4588.17 2602.9 -661.75 -352.93c485.29,-816.17 948.52,-1742.63 948.52,-2360.27 0,-1301.46 -1058.81,-2382.32 -2382.32,-2382.32 -1323.51,0 -2382.33,1058.81 -2382.33,2382.32 0,132.35 22.06,264.7 44.12,397.05l-529.41 -286.76c-88.23,-44.12 -198.52,-44.12 -286.76,0 -88.24,44.12 -132.35,154.41 -132.35,242.64l0 12418.95c22.05,132.35 88.23,220.58 176.47,264.7l5095.51 2470.55 22.07 0c22.05,22.06 66.17,22.06 88.23,22.06l22.07 0.01c22.05,0 44.11,0 44.11,0l22.06 0 22.05 0 22.07 0 4566.11 -2558.79 4676.41 2558.79c88.23,44.11 198.53,44.11 286.76,0 88.24,-44.12 132.36,-154.41 132.36,-242.65l0 -12132.18c-0.01,-110.29 -66.19,-198.53 -154.42,-242.65zm-11713.08 -4720.52c992.64,0 1808.8,816.16 1808.8,1808.8 0,838.22 -1147.04,2580.84 -1808.8,3485.24 -661.75,-882.35 -1808.79,-2602.91 -1808.79,-3485.24 0,-1014.69 794.1,-1808.8 1808.79,-1808.8zm1808.8 16588l-4521.99 -2183.78 0 -5955.8 4521.99 2272.02 0 5867.56zm0 -6507.25l-4521.99 -2272.03 0 -5161.7 639.7 330.88c551.46,1279.39 1676.44,2735.26 1852.91,2955.85l220.58 286.76 220.59 -286.76c88.23,-110.29 485.29,-617.64 904.4,-1279.39l683.81 352.93 0 5073.46zm573.52 -5073.47l3661.72 -2073.49 -3661.72 6529.31 0 -4455.82zm0 5624.93l1566.15 -2779.37 2470.56 1720.56 -4036.71 6485.2 0 -5426.39zm4124.94 3639.65l-3595.53 2007.33 3595.53 -5801.39 0 3794.06zm0 -5360.22l-2294.09 -1566.16 2294.09 -4080.82 0 5646.98zm4808.76 7676.36l-4235.23 -2316.14 0 -4257.3 4235.23 2955.85 0 3617.59zm0 -4323.47l-4235.23 -2933.78 0 -6661.67 4235.23 2404.38 0 7191.07z"/>
  <path class="fil1" d="M4118.69 3986.05c0,148.21 24.7,296.42 49.41,444.63m2643.04 -2470.14c1111.57,0 2025.52,913.95 2025.52,2025.51m-4051.03 0c0,-1136.26 889.25,-2025.51 2025.51,-2025.51m-2321.92 3334.69c617.53,1432.68 1877.3,3062.97 2074.91,3309.99l247.01 321.12 247.01 -321.12c98.81,-123.51 543.44,-691.64 1012.76,-1432.68"/>
  <path class="fil0" d="M15800.41 7859.48c-1014.55,0 -1839.95,825.41 -1839.95,1839.95 0,342.79 94.95,677.31 274.65,967.53l1460.56 2353.67c27.98,45.09 77.27,72.49 130.28,72.49 0.41,0 0.81,0 1.22,0 53.47,-0.42 102.86,-28.67 130.33,-74.54l1423.33 -2376.48c169.79,-284.09 259.53,-610.05 259.53,-942.67 0,-1014.54 -825.41,-1839.95 -1839.95,-1839.95zm1169.09 2604.01l-1124.7 1821.92 -1169.9 -1800.69c-704.2,-1137.21 324.8,-2193.62 1125.51,-2151.29 1076.14,-10.58 1685.18,1266.52 1169.09,2130.06z"/>
  <path class="fil0" d="M5892.93 12270.17c-1014.55,0 -1839.95,825.41 -1839.95,1839.95 0,342.79 94.95,677.31 274.65,967.53l1460.56 2353.67c27.98,45.09 77.27,72.49 130.28,72.49 0.41,0 0.81,0 1.22,0 53.47,-0.42 102.86,-28.67 130.33,-74.54l1423.33 -2376.48c169.79,-284.09 259.53,-610.05 259.53,-942.67 0,-1014.54 -825.41,-1839.95 -1839.95,-1839.95zm1169.09 2604.01l-1124.7 1821.92 -1169.9 -1800.69c-704.2,-1137.21 324.8,-2193.62 1125.51,-2151.29 1076.14,-10.58 1685.18,1266.52 1169.09,2130.06z"/>
  <path class="fil0" d="M16734.97 9857.61c0,-526.56 -438.8,-965.36 -965.36,-965.36 -526.56,0 -965.36,421.25 -965.36,965.36 0,526.56 438.8,965.36 965.36,965.36 526.56,0 965.36,-438.8 965.36,-965.36zm-1474.37 0c0,-280.83 228.18,-509.01 509.01,-509.01 280.83,0 509.01,228.18 509.01,509.01 0,280.83 -228.18,509.01 -509.01,509.01 -280.83,0 -509.01,-228.18 -509.01,-509.01z"/>
  <path class="fil0" d="M6865.89 14236.91c0,-526.56 -438.8,-965.36 -965.36,-965.36 -526.56,0 -965.36,421.25 -965.36,965.36 0,526.56 438.8,965.36 965.36,965.36 526.56,0 965.36,-438.8 965.36,-965.36zm-1474.37 0c0,-280.83 228.18,-509.01 509.01,-509.01 280.83,0 509.01,228.18 509.01,509.01 0,280.83 -228.18,509.01 -509.01,509.01 -280.83,0 -509.01,-228.18 -509.01,-509.01z"/>
 </g>
</svg>
