<?xml version="1.0" encoding="UTF-8"?>
<!DOCTYPE svg PUBLIC "-//W3C//DTD SVG 1.1//EN" "http://www.w3.org/Graphics/SVG/1.1/DTD/svg11.dtd">
<!-- Creator: CorelDRAW 2020 (64-Bit) -->
<svg xmlns="http://www.w3.org/2000/svg" xml:space="preserve" width="210mm" height="210mm" version="1.1" viewBox="0 0 21000 21000" xmlns:xlink="http://www.w3.org/1999/xlink" xmlns:xodm="http://www.corel.com/coreldraw/odm/2003" enable-background="new 0 0 512 512">
 <defs>
  
 </defs>
 <g id="&#x421;&#x43B;&#x43E;&#x439;_x0020_1">
  <metadata id="CorelCorpID_0Corel-Layer"/>
  <path class="fil0" d="M18398.94 5226.21l-9813.19 0c-1.07,0 -2.11,0.14 -3.18,0.17 -15.64,-23.37 -32.05,-46.29 -49.46,-68.5 67.62,-242.88 53.17,-504.39 -44.2,-739.58 -97.41,-235.15 -272.13,-430.29 -491.67,-554.19 -30.49,-250.27 -143.92,-486.36 -323.9,-666.34 -179.98,-179.98 -416.07,-293.41 -666.34,-323.89 -123.91,-219.58 -319.07,-394.25 -554.19,-491.67 -235.12,-97.39 -496.59,-111.87 -739.58,-44.21 -198.53,-155.44 -445.68,-242.16 -700.19,-242.16 -254.5,0 -501.66,86.7 -700.18,242.16 -242.86,-67.62 -504.4,-53.16 -739.59,44.21 -235.14,97.4 -430.29,272.12 -554.19,491.67 -250.31,30.48 -486.38,143.91 -666.34,323.89 -179.98,179.98 -293.41,416.07 -323.89,666.3 -219.58,123.94 -394.29,319.11 -491.67,554.23 -97.41,235.15 -111.87,496.69 -44.21,739.58 -155.43,198.5 -242.16,445.66 -242.16,700.19 0,254.53 86.73,501.66 242.16,700.18 -67.62,242.88 -53.16,504.4 44.21,739.55 97.37,235.14 272.08,430.29 491.67,554.23 30.48,250.27 143.91,486.36 323.89,666.34 93.53,93.53 202.42,168.64 320.39,223.91 -0.04,1.33 -0.21,2.64 -0.21,3.96l0 5731.34c0,334.75 272.33,607.08 607.04,607.08l1069.41 0 0 1039.41 -119.15 0c-246.88,0 -460.63,140.96 -557.79,367.9 -97.2,226.93 -51.78,478.91 118.52,657.6l1303.93 1368.12c113.99,119.57 274.1,188.16 439.27,188.16 165.21,0 325.28,-68.59 439.27,-188.16l1303.89 -1368.09c170.34,-178.7 215.76,-430.67 118.56,-657.6 -97.19,-226.93 -310.95,-367.9 -557.83,-367.9l-119.15 0 0 -1039.42 2935.78 0.02 0 1039.41 -119.18 -0.01c-246.88,0 -460.64,140.96 -557.8,367.9 -97.2,226.93 -51.77,478.9 118.53,657.6l1303.91 1368.11c113.99,119.58 274.1,188.16 439.27,188.16 165.21,0 325.33,-68.58 439.27,-188.16l1303.94 -1368.11c170.3,-178.7 215.73,-430.67 118.52,-657.6 -97.21,-226.93 -310.93,-367.9 -557.79,-367.9l-119.2 0 0 -1039.42 1138.62 0.02c143.64,0 260.09,-116.46 260.09,-260.09 0,-143.64 -116.45,-260.09 -260.09,-260.09l-1138.62 0 0 -520.9 4095.45 0c221.49,0 406.7,-166.73 430.8,-387.84 58.53,-536.36 490.41,-968.11 1026.92,-1026.61 221.11,-24.1 387.84,-209.31 387.84,-430.8l0 -5497.61c0,-239 -194.61,-433.47 -433.79,-433.47l-8833.01 0c50.19,-129.5 76.91,-268.21 76.91,-409.23 0,-37.46 -2.11,-74.7 -5.79,-111.67l9629.43 0c47.89,0 86.87,38.98 86.87,86.89l0 8644.3c0,47.93 -38.98,86.9 -86.87,86.9l-4068.77 0.01c-143.63,0 -260.09,116.46 -260.09,260.09 0,143.64 116.46,260.09 260.09,260.09l629.9 -0.01 0 1039.41 -119.16 0c-246.88,0 -460.63,140.96 -557.79,367.9 -97.2,226.93 -51.77,478.91 118.52,657.6l1303.93 1368.12c113.99,119.57 274.1,188.16 439.27,188.16 165.21,0 325.28,-68.59 439.27,-188.16l1303.93 -1368.12c170.31,-178.69 215.74,-430.67 118.53,-657.6 -97.21,-226.93 -310.93,-367.9 -557.8,-367.9l-119.16 0 0 -1039.41 1069.41 0c334.72,0 607.04,-272.33 607.04,-607.08l0 -8644.3c-0.04,-334.71 -272.36,-607.07 -607.08,-607.07zm-16027.12 2213.36c-162.26,-60.26 -287.96,-181.29 -354.02,-340.81 -66.1,-159.55 -62.77,-334.02 9.36,-491.32 46.78,-102.06 22.82,-222.6 -59.48,-298.99 -126.85,-117.76 -196.69,-277.7 -196.69,-450.35 0,-172.66 69.84,-332.6 196.66,-450.36 82.3,-76.4 106.26,-196.94 59.48,-298.99 -72.12,-157.31 -75.43,-331.8 -9.36,-491.36 66.06,-159.52 191.81,-280.55 354.03,-340.81 105.24,-39.09 173.49,-141.28 169.34,-253.46 -6.41,-172.9 57.29,-335.41 179.43,-457.5 122.1,-122.1 284.97,-185.53 457.47,-179.39 112.54,4.55 214.39,-64.12 253.46,-169.34 60.24,-162.22 181.29,-287.97 340.81,-354.02 159.52,-66.1 334.05,-62.81 491.32,9.35 102.06,46.78 222.6,22.78 298.99,-59.47 117.76,-126.82 277.7,-196.67 450.36,-196.67 172.65,0 332.59,69.85 450.35,196.67 76.32,82.25 196.91,106.21 298.99,59.47 157.31,-72.12 331.8,-75.42 491.32,-9.35 159.52,66.07 280.58,191.8 340.81,354.02 39.09,105.25 141.6,173.95 253.46,169.34 172.48,-6.52 335.37,57.29 457.5,179.39 122.1,122.1 185.8,284.6 179.39,457.5 -4.16,112.18 64.12,214.39 169.34,253.46 162.22,60.24 287.97,181.29 354.03,340.81 66.09,159.55 62.76,334.02 -9.36,491.32 -46.78,102.06 -22.82,222.6 59.48,298.99 126.82,117.76 196.66,277.7 196.66,450.36 0,172.65 -69.84,332.59 -196.66,450.35 -82.3,76.4 -106.26,196.95 -59.48,298.99 72.12,157.31 75.43,331.8 9.36,491.32 -66.07,159.52 -191.81,280.58 -354.03,340.81 -105.25,39.09 -173.49,141.28 -169.34,253.46 6.41,172.94 -57.29,335.41 -179.39,457.5 -122.1,122.09 -284.67,185.63 -457.5,179.39 -112.74,-4.61 -214.39,64.12 -253.46,169.34 -60.26,162.26 -181.29,287.97 -340.81,354.03 -159.52,66.09 -334.02,62.8 -491.32,-9.36 -102.06,-46.75 -222.6,-22.82 -298.99,59.48 -117.76,126.82 -277.7,196.66 -450.35,196.66 -172.66,0 -332.6,-69.84 -450.36,-196.66 -50.36,-54.24 -119.89,-83.13 -190.69,-83.13 -36.58,0 -73.52,7.74 -108.3,23.69 -157.31,72.12 -331.77,75.43 -491.36,9.36 -159.52,-66.06 -280.55,-191.81 -340.81,-354.03 -39.08,-105.25 -141.21,-173.74 -253.46,-169.34 -172.66,6.14 -335.41,-57.29 -457.5,-179.39 -122.09,-122.1 -185.8,-284.6 -179.39,-457.5 4.26,-112.18 -64.01,-214.39 -169.26,-253.46l-0.03 0zm4087.02 9204.66l379.24 0c49.77,0 71.26,32.91 79.69,52.53 8.39,19.64 17.38,57.92 -16.96,93.91l-1303.93 1368.12c-22.3,23.37 -48.86,26.88 -62.73,26.88 -13.87,0 -40.47,-3.5 -62.77,-26.88l-1303.93 -1368.12c-34.3,-35.99 -25.31,-74.27 -16.92,-93.91 8.43,-19.63 29.92,-52.53 79.65,-52.53l379.24 0c143.64,0 260.09,-116.45 260.09,-260.09l0 -1299.48 1329.17 0 0 1299.48c0.07,143.64 116.52,260.09 260.16,260.09zm5684.52 0c49.73,0 71.26,32.91 79.65,52.53 8.39,19.63 17.38,57.92 -16.92,93.91l-1303.93 1368.12c-22.3,23.37 -48.86,26.84 -62.73,26.84 -13.84,0 -40.43,-3.5 -62.73,-26.84l-1303.92 -1368.12c-34.3,-35.99 -25.3,-74.27 -16.92,-93.91 8.43,-19.63 29.93,-52.53 79.65,-52.53l379.27 0c143.64,0 260.09,-116.45 260.09,-260.09l0 -2340.56 1329.17 0.01 0 2340.57c0,143.63 116.46,260.09 260.09,260.09l379.23 -0.02zm5301.69 -4522.11c-716.62,111.9 -1289.64,684.86 -1401.61,1401.3l-11809.58 0 0 -1695.1c0,-143.64 -116.45,-260.09 -260.09,-260.09 -143.63,0 -260.08,116.45 -260.08,260.09l0 1781.8c0,239.04 194.6,433.47 433.81,433.47l5507.21 0 0 520.9 -6374.7 0c-47.89,0 -86.87,-38.98 -86.87,-86.89l0 -5402.97c106.95,110.45 235.92,199.54 380.17,259.29 45.85,19 92.9,33.88 140.41,46.57l0 1280.55c0,143.63 116.46,260.09 260.09,260.09 143.64,0 260.09,-116.46 260.09,-260.09l0 -1264.39c26.49,-5.38 52.89,-11.23 79,-18.48 198.52,155.43 445.68,242.16 700.18,242.16 109,0 216.64,-16.02 319.7,-46.44l0 932.74c0,143.62 116.45,260.07 260.09,260.07 143.63,0 260.09,-116.45 260.09,-260.07l0 -1099.89c201.34,29.62 409.23,6.17 599.86,-72.82 235.15,-97.38 430.32,-272.08 554.23,-491.67 250.23,-30.49 486.36,-143.91 666.31,-323.85 179.98,-179.98 293.4,-416.08 323.89,-666.35 219.57,-123.91 394.25,-319.07 491.67,-554.19 67.31,-162.49 94.05,-337.52 82.43,-510.36l8873.7 -0.01 0 5334.63zm-375.64 4522.11l379.24 0c49.73,0 71.27,32.91 79.65,52.53 8.39,19.63 17.38,57.92 -16.92,93.91l-1303.93 1368.12c-22.29,23.37 -48.86,26.88 -62.73,26.88 -13.86,0 -40.47,-3.5 -62.76,-26.88l-1303.93 -1368.12c-34.3,-35.99 -25.31,-74.27 -16.92,-93.91 8.42,-19.63 29.92,-52.53 79.64,-52.53l379.25 0c143.63,0 260.08,-116.45 260.08,-260.09l0 -1299.48 1329.18 0 0 1299.48c0.06,143.64 116.52,260.09 260.15,260.09z"/>
  <path class="fil0" d="M10839.47 12597.1c1346.34,0 2441.64,-1095.31 2441.64,-2441.67 0,-1346.34 -1095.31,-2441.64 -2441.64,-2441.64 -1346.32,0 -2441.67,1095.31 -2441.67,2441.64 0,1346.36 1095.34,2441.67 2441.67,2441.67zm0 -4363.16c1059.52,0 1921.48,861.96 1921.48,1921.48 0,1059.5 -861.96,1921.5 -1921.48,1921.5 -1059.52,0 -1921.5,-861.96 -1921.5,-1921.5 0,-1059.49 861.97,-1921.48 1921.5,-1921.48z"/>
  <path class="fil0" d="M15853.32 9031.89l465.53 0c334.74,0 607.07,-272.33 607.07,-607.08l0 -465.52c0,-334.72 -272.33,-607.03 -607.07,-607.03l-465.53 0c-334.71,0 -607.03,272.33 -607.03,607.03l0 465.52c0,334.75 272.33,607.08 607.03,607.08zm-86.85 -1072.6c0,-47.89 38.97,-86.87 86.87,-86.87l465.51 0.01c47.93,0 86.89,38.98 86.89,86.87l0 465.53c0,47.93 -38.98,86.9 -86.89,86.9l-465.53 0c-47.89,0 -86.87,-38.98 -86.87,-86.9l0.02 -465.54z"/>
  <path class="fil0" d="M16086.08 9544.19c-143.63,0 -260.08,116.45 -260.08,260.09l0 1585.37c0,143.64 116.45,260.09 260.08,260.09 143.64,0 260.09,-116.45 260.09,-260.09l0 -1585.37c0,-143.64 -116.45,-260.09 -260.09,-260.09z"/>
  <path class="fil0" d="M5825.59 11278.98l-465.52 0c-334.72,0 -607.04,272.33 -607.04,607.07l0 465.52c0,334.72 272.33,607.04 607.04,607.04l465.52 0c334.74,0 607.08,-272.33 607.08,-607.04l0 -465.52c0,-334.72 -272.34,-607.07 -607.08,-607.07zm86.9 1072.59c0,47.9 -38.98,86.88 -86.9,86.88l-465.52 0c-47.89,0 -86.87,-38.98 -86.87,-86.88l0 -465.52c0,-47.93 38.98,-86.9 86.87,-86.9l465.52 0c47.93,0 86.9,38.98 86.9,86.9l0 465.52z"/>
  <path class="fil0" d="M3558.42 4642.32l516.31 -0.01 0 851.97 -97.67 0c-202.35,0 -377.56,115.55 -457.2,301.57 -79.67,186 -42.44,392.55 97.15,539.01l1068.8 1121.41c93.42,98.01 224.67,154.23 360.05,154.23 135.42,0 266.63,-56.22 360.05,-154.23l1068.8 -1121.41c139.6,-146.46 176.84,-353.01 97.16,-539.01 -79.69,-186.01 -254.87,-301.57 -457.21,-301.57l-97.67 0 0 -851.97 876.56 0 -3335.13 0.01zm2245.32 1278.33l310.85 0c40.76,0 58.42,26.98 65.29,43.06 6.88,16.08 14.24,47.47 -13.87,76.97l-1068.8 1121.41c-18.27,19.15 -40.05,22.03 -51.41,22.03 -11.37,0 -33.18,-2.87 -51.45,-22.03l-1068.8 -1121.41c-28.11,-29.5 -20.74,-60.88 -13.86,-76.97 6.91,-16.1 24.52,-43.06 65.28,-43.06l310.85 0c117.74,0 213.2,-95.45 213.2,-213.19l0 -1065.15 1089.48 0 0 1065.15c0.05,117.74 95.5,213.19 213.24,213.19z"/>
  <path class="fil0" d="M10182.85 8941.35l969.14 0c310.72,0 466.07,135.63 466.07,406.88l0 713.91c0,273.73 -155.35,410.59 -466.07,410.59l-443.88 0 0 821.18 -525.26 0 0 -2352.56zm906.25 1050.51l0 -569.64c0,-61.65 -32.06,-92.48 -96.16,-92.48l-284.83 0 0 754.59 284.83 0c64.1,0 96.16,-30.81 96.16,-92.47z"/>
  <rect class="fil1" x="10051.01" y="10618.37" width="1313.42" height="437.82"/>
 </g>
</svg>
