<?xml version="1.0" encoding="UTF-8"?>
<!DOCTYPE svg PUBLIC "-//W3C//DTD SVG 1.1//EN" "http://www.w3.org/Graphics/SVG/1.1/DTD/svg11.dtd">
<!-- Creator: CorelDRAW 2020 (64-Bit) -->
<svg xmlns="http://www.w3.org/2000/svg" xml:space="preserve" width="297mm" height="210mm" version="1.1" style="shape-rendering:geometricPrecision; text-rendering:geometricPrecision; image-rendering:optimizeQuality; fill-rule:evenodd; clip-rule:evenodd"
viewBox="0 0 29700 21000"
 xmlns:xlink="http://www.w3.org/1999/xlink"
 xmlns:xodm="http://www.corel.com/coreldraw/odm/2003">
 <defs>
  <style type="text/css">
   <![CDATA[
    .fil0 {fill:black;fill-rule:nonzero}
    .fil1 {fill:url(#id0);fill-rule:nonzero}
   ]]>
  </style>
  <linearGradient id="id0" gradientUnits="userSpaceOnUse" x1="791.73" y1="10707.82" x2="29030.02" y2="10707.82">
   <stop offset="0" style="stop-opacity:1; stop-color:#C00000"/>
   <stop offset="1" style="stop-opacity:1; stop-color:#E60000"/>
  </linearGradient>
 </defs>
 <g id="Слой_x0020_1">
  <metadata id="CorelCorpID_0Corel-Layer"/>
  <path class="fil0" d="M19514.82 5781.23l-8671.04 0c-265.92,0.3 -481.42,215.8 -481.71,481.69l-0.01 8349.92c0.3,265.92 215.8,481.42 481.7,481.71l8671.06 0.01c265.93,-0.3 481.43,-215.8 481.72,-481.7l0 -8349.91c-0.29,-265.92 -215.79,-481.42 -481.69,-481.72l-0.03 0zm-8671.04 321.15l8671.04 0c88.62,0.07 160.49,71.94 160.57,160.57l0.01 802.88 -8992.19 0 0 -802.88c0.09,-88.63 71.96,-160.5 160.59,-160.57l-0.02 0zm8671.04 8671.03l-8671.04 0c-88.61,-0.08 -160.48,-71.95 -160.56,-160.58l-0.01 -7225.86 8992.19 0 0 7225.87c-0.09,88.62 -71.96,160.49 -160.59,160.57l0.01 0z"/>
  <circle class="fil0" cx="12449.53" cy="6584.1" r="160.57"/>
  <circle class="fil0" cx="11807.23" cy="6584.1" r="160.57"/>
  <circle class="fil0" cx="11164.93" cy="6584.1" r="160.57"/>
  <path class="fil0" d="M18872.52 8029.27l-7386.43 0c-88.66,0 -160.57,71.91 -160.57,160.58l-0.01 2569.19c0.01,88.66 71.92,160.57 160.58,160.57l7386.43 0.01c88.67,-0.01 160.58,-71.92 160.58,-160.59l0 -2569.18c0,-88.67 -71.91,-160.58 -160.58,-160.58zm-2632.44 2377.82l384.4 -384.42 575.8 575.8 -816.67 0 -143.53 -191.38zm-257.91 191.38l-1284.59 0 642.3 -856.4 642.29 856.4zm-1686.03 0l-1217.06 0 815.63 -1165.17 615.66 879.53 -214.23 285.64zm4415.81 0l-1057.53 0 -916.39 -916.42c-30.1,-30.09 -70.97,-47.03 -113.55,-47.03 -42.59,0 -83.46,16.94 -113.56,47.02l-465.5 465.51 -577.08 -769.45c-30.3,-40.43 -77.92,-64.23 -128.46,-64.23 -50.54,0 -98.16,23.8 -128.47,64.22l-498.28 664.38 -686.88 -981.27c-30.02,-42.89 -79.15,-68.49 -131.54,-68.49 -52.38,0 -101.51,25.6 -131.54,68.49l-1076.09 1537.27 -1040.42 0 0 -2248.05 7065.29 0 0 2248.05z"/>
  <circle class="fil0" cx="16142.75" cy="9153.3" r="160.57"/>
  <circle class="fil0" cx="15821.6" cy="11401.34" r="160.57"/>
  <circle class="fil0" cx="15179.3" cy="11401.34" r="160.57"/>
  <circle class="fil0" cx="14537" cy="11401.34" r="160.57"/>
  <path class="fil0" d="M13091.83 13809.96l-1284.6 0c-88.66,0 -160.57,71.91 -160.57,160.57 0,88.67 71.91,160.58 160.58,160.58l1284.59 0c88.67,0 160.58,-71.91 160.58,-160.58 0,-88.66 -71.91,-160.57 -160.57,-160.57l-0.01 0z"/>
  <path class="fil0" d="M15821.6 13809.96l-1284.6 0c-88.66,0 -160.57,71.91 -160.57,160.57 0,88.67 71.91,160.58 160.58,160.58l1284.59 0c88.67,0 160.58,-71.91 160.58,-160.58 0,-88.66 -71.91,-160.57 -160.58,-160.57l0 0z"/>
  <path class="fil0" d="M18551.37 13809.96l-1284.59 0c-88.67,0 -160.58,71.91 -160.58,160.57 0,88.67 71.91,160.58 160.58,160.58l1284.59 0c88.67,0 160.58,-71.91 160.58,-160.58 0,-88.66 -71.91,-160.57 -160.58,-160.57l0 0z"/>
  <path class="fil1" d="M1356.6 5253.08l27673.42 -3354.66 -2491.03 14027.19 -22149.28 3591.61 -3597.98 -14195.66 564.87 -68.48zm26453.54 -2200.4l-25771.5 3124.11 3094.73 12210.13 20545.26 -3331.51 2131.51 -12002.73z"/>
  <path class="fil0" d="M16154.92 11883.07l-1926.9 0c-88.67,-0.01 -160.58,71.9 -160.58,160.57l0 1284.59c0,88.67 71.91,160.58 160.58,160.58l1926.9 0.01c88.67,-0.01 160.58,-71.92 160.58,-160.59l0 -1284.59c0,-88.67 -71.91,-160.58 -160.58,-160.58l0 0.01zm-62.34 226.14l0 1025.81 -811.07 -601.82c-28.48,-22.81 -63.88,-35.24 -100.36,-35.24 -36.48,0 -71.89,12.71 -100.35,35.23l-787.11 622.99 -3.66 -1035.71 1802.55 -11.26zm-265.1 1134.49l-1282.04 2.93 646.03 -462.79 636.01 459.86z"/>
  <path class="fil0" d="M18864.85 11880.43l-1926.9 0c-88.67,-0.01 -160.58,71.9 -160.58,160.57l0 1284.59c0,88.67 71.91,160.58 160.58,160.58l1926.9 0.01c88.67,-0.01 160.58,-71.92 160.58,-160.59l0 -1284.59c0,-88.67 -71.91,-160.58 -160.58,-160.58l0 0.01zm-62.34 226.14l0 1025.81 -811.07 -601.82c-28.48,-22.81 -63.88,-35.24 -100.36,-35.24 -36.48,0 -71.89,12.71 -100.35,35.23l-787.11 622.99 -3.66 -1035.71 1802.55 -11.26zm-265.1 1134.49l-1282.04 2.93 646.03 -462.79 636.01 459.86z"/>
  <path class="fil0" d="M13409.85 11883.08l-1926.9 0c-88.67,-0.01 -160.58,71.9 -160.58,160.57l0 1284.59c0,88.67 71.91,160.58 160.58,160.58l1926.9 0.01c88.67,-0.01 160.58,-71.92 160.58,-160.59l0 -1284.59c0,-88.67 -71.91,-160.58 -160.58,-160.58l0 0.01zm-62.34 226.14l0 1025.81 -811.07 -601.82c-28.48,-22.81 -63.88,-35.24 -100.36,-35.24 -36.48,0 -71.89,12.71 -100.35,35.23l-787.11 622.99 -3.66 -1035.71 1802.55 -11.26zm-265.1 1134.49l-1282.04 2.93 646.03 -462.79 636.01 459.86z"/>
 </g>
</svg>
