<?xml version="1.0" encoding="UTF-8"?>
<!DOCTYPE svg PUBLIC "-//W3C//DTD SVG 1.1//EN" "http://www.w3.org/Graphics/SVG/1.1/DTD/svg11.dtd">
<!-- Creator: CorelDRAW 2020 (64-Bit) -->
<svg xmlns="http://www.w3.org/2000/svg" xml:space="preserve" width="297mm" height="210mm" version="1.1" style="shape-rendering:geometricPrecision; text-rendering:geometricPrecision; image-rendering:optimizeQuality; fill-rule:evenodd; clip-rule:evenodd"
viewBox="0 0 29700 21000"
 xmlns:xlink="http://www.w3.org/1999/xlink"
 xmlns:xodm="http://www.corel.com/coreldraw/odm/2003">
 <defs>
  <style type="text/css">
   <![CDATA[
    .fil0 {fill:black;fill-rule:nonzero}
    .fil1 {fill:url(#id0);fill-rule:nonzero}
   ]]>
  </style>
  <linearGradient id="id0" gradientUnits="userSpaceOnUse" x1="791.73" y1="10707.82" x2="29030.02" y2="10707.82">
   <stop offset="0" style="stop-opacity:1; stop-color:#C00000"/>
   <stop offset="1" style="stop-opacity:1; stop-color:#E60000"/>
  </linearGradient>
 </defs>
 <g id="Слой_x0020_1">
  <metadata id="CorelCorpID_0Corel-Layer"/>
  <g id="_1709145213408">
   <g>
    <g>
     <path class="fil0" d="M17121.38 9893.49l-963.96 0c-98.57,0 -178.51,79.94 -178.51,178.51l0 963.95c0,98.57 79.94,178.51 178.51,178.51l963.96 0c98.57,0 178.51,-79.94 178.51,-178.51l0 -963.95c-0.01,-98.57 -79.92,-178.51 -178.51,-178.51zm-178.52 963.95l-606.93 0 0 -606.93 606.93 0 0 606.93z"/>
    </g>
   </g>
   <g>
    <g>
     <path class="fil0" d="M15282.73 9893.49l-963.95 0c-98.57,0 -178.51,79.94 -178.51,178.51l0 963.95c0,98.57 79.94,178.51 178.51,178.51l963.95 0c98.58,0 178.51,-79.94 178.51,-178.51l0 -963.95c0,-98.57 -79.92,-178.51 -178.51,-178.51zm-178.51 963.95l-606.93 0 0 -606.93 606.93 0 0 606.93z"/>
    </g>
   </g>
   <g>
    <g>
     <path class="fil0" d="M13444.09 9893.49l-963.95 0c-98.57,0 -178.51,79.94 -178.51,178.51l0 963.95c0,98.57 79.94,178.51 178.51,178.51l963.95 0c98.57,0 178.51,-79.94 178.51,-178.51l0 -963.95c0,-98.57 -79.92,-178.51 -178.51,-178.51zm-178.51 963.95l-606.93 0 0 -606.93 606.93 0 0 606.93z"/>
    </g>
   </g>
   <g>
    <g>
     <path class="fil0" d="M14318.78 12285.51l-1838.64 0c-98.57,0 -178.51,79.94 -178.51,178.51l0 963.95c0,98.57 79.94,178.51 178.51,178.51l1838.64 0c98.57,0 178.51,-79.94 178.51,-178.51l0 -963.95c0,-98.57 -79.92,-178.51 -178.51,-178.51zm-178.5 963.95l-1481.63 0 0 -606.93 1481.63 0 0 606.93z"/>
    </g>
   </g>
   <g>
    <g>
     <path class="fil0" d="M17087.58 12285.51l-1972.22 0c-98.57,0 -178.51,79.94 -178.51,178.51 0,98.58 79.94,178.52 178.51,178.52l1972.22 -0.01c98.57,0 178.51,-79.94 178.51,-178.51 0,-98.57 -79.94,-178.51 -178.51,-178.51z"/>
    </g>
   </g>
   <g>
    <g>
     <path class="fil0" d="M17213.79 13051.85c-33.21,-33.22 -79.26,-52.3 -126.21,-52.3 -46.95,0 -93,19.08 -126.21,52.3 -33.18,33.21 -52.3,79.26 -52.3,126.21 0,46.95 19.1,93 52.3,126.19 33.21,33.2 79.26,52.32 126.21,52.32 46.95,0 93,-19.1 126.21,-52.32 33.18,-33.19 52.3,-79.24 52.3,-126.19 0,-46.95 -19.1,-93 -52.3,-126.21z"/>
    </g>
   </g>
   <g>
    <g>
     <path class="fil0" d="M16375.56 12999.55l-1260.2 0c-98.57,0 -178.51,79.93 -178.51,178.51 0,98.57 79.94,178.51 178.51,178.51l1260.2 0c98.58,0 178.51,-79.94 178.51,-178.51 0,-98.58 -79.93,-178.51 -178.51,-178.51z"/>
    </g>
   </g>
   <g>
    <g>
     <path class="fil0" d="M13099.85 6764.52c-295.29,0 -535.53,240.23 -535.53,535.52 0,295.29 240.24,535.53 535.53,535.53 295.29,0 535.53,-240.24 535.53,-535.53 0,-295.29 -240.24,-535.52 -535.53,-535.52zm0 714.03c-98.43,0 -178.51,-80.08 -178.51,-178.51 0,-98.43 80.08,-178.51 178.51,-178.51 98.43,0 178.51,80.08 178.51,178.51 0,98.43 -80.08,178.51 -178.51,178.51z"/>
    </g>
   </g>
   <g>
    <g>
     <path class="fil0" d="M19190.06 13892.09l-124.96 0 0 -4533.91c0,-492.15 -400.39,-892.54 -892.54,-892.54l-160.66 0 0 -2213.73c0,-98.57 -79.94,-178.51 -178.51,-178.51l-6069.3 0c-98.58,0 -178.52,79.94 -178.52,178.51l0 2213.73 -160.65 0c-492.15,0 -892.54,400.39 -892.54,892.54l0 1326.7c0,98.57 79.93,178.51 178.51,178.51 98.57,0 178.51,-79.94 178.51,-178.51l0 -1326.7c0,-295.29 240.24,-535.53 535.53,-535.53l160.65 0 0 5069.44 -696.19 0 0 -1802.94c0,-98.57 -79.93,-178.51 -178.51,-178.51 -98.57,0 -178.51,79.94 -178.51,178.51l0 1802.95 -124.95 -0.01c-98.57,0 -178.51,79.94 -178.51,178.51l0 249.92c0,492.14 400.4,892.54 892.54,892.54l7354.58 0c492.14,0 892.54,-400.4 892.54,-892.54l0 -249.92c0,-98.57 -79.94,-178.51 -178.51,-178.51zm-1178.16 -4649.09c0,-0.05 0,-0.12 0,-0.17l0 -420.18 160.66 0 0 0c295.29,0 535.53,240.24 535.53,535.53l0 4533.91 -696.19 0 0 -4649.09zm-6069.3 -2812.58l5712.28 0 0 2381.52 -1511.52 -1511.52c-33.49,-33.47 -78.89,-52.29 -126.23,-52.29 -47.33,0 -92.73,18.82 -126.22,52.29l-741.76 741.77 -307.48 -307.48c-69.72,-69.69 -182.72,-69.69 -252.46,0l-1444.75 1444.75 -1201.86 0 0 -2749.04zm3459 1864.24l615.53 -615.55 1500.35 1500.35 -1231.08 0 -884.8 -884.8zm379.88 884.8l-2132.1 0 1066.05 -1066.06 1066.05 1066.06zm-3838.88 357.01l5712.28 0 0 2035.01 -5712.28 0 0 -2035.01zm0 2392.03l5712.28 0 0 1963.6 -5712.28 -0.01 0 -1963.59zm7068.95 2392.02c0,295.29 -240.24,535.52 -535.52,535.52l-7354.58 0c-295.29,0 -535.52,-240.23 -535.52,-535.52l0 -71.41 149.02 0c1.39,0.02 8276.6,0 8276.6,0l0 71.41z"/>
    </g>
   </g>
   <g>
    <g>
     <path class="fil0" d="M15120.06 14374.07l-644.12 0c-98.57,0 -178.51,79.94 -178.51,178.51 0,98.57 79.94,178.51 178.51,178.51l644.12 0c98.57,0 178.51,-79.94 178.51,-178.51 0,-98.58 -79.94,-178.51 -178.51,-178.51z"/>
    </g>
   </g>
   <g>
    <g>
     <path class="fil0" d="M10837.07 11320.31c-33.18,-33.22 -79.24,-52.3 -126.19,-52.3 -46.94,0 -93,19.09 -126.2,52.31 -33.21,33.21 -52.3,79.25 -52.3,126.2 0,46.95 19.08,93 52.3,126.19 33.2,33.22 79.26,52.32 126.2,52.32 46.95,0 93.01,-19.1 126.19,-52.32 33.22,-33.19 52.32,-79.24 52.32,-126.19 0,-46.95 -19.1,-93 -52.32,-126.21z"/>
    </g>
   </g>
   <g>
   </g>
   <g>
   </g>
   <g>
   </g>
   <g>
   </g>
   <g>
   </g>
   <g>
   </g>
   <g>
   </g>
   <g>
   </g>
   <g>
   </g>
   <g>
   </g>
   <g>
   </g>
   <g>
   </g>
   <g>
   </g>
   <g>
   </g>
   <g>
   </g>
  </g>
  <path class="fil1" d="M1356.6 5253.08l27673.42 -3354.66 -2491.03 14027.19 -22149.28 3591.61 -3597.98 -14195.66 564.87 -68.48zm26453.54 -2200.4l-25771.5 3124.11 3094.73 12210.13 20545.26 -3331.51 2131.51 -12002.73z"/>
 </g>
</svg>
