<?xml version="1.0" encoding="UTF-8"?>
<!DOCTYPE svg PUBLIC "-//W3C//DTD SVG 1.1//EN" "http://www.w3.org/Graphics/SVG/1.1/DTD/svg11.dtd">
<!-- Creator: CorelDRAW 2020 (64-Bit) -->
<svg xmlns="http://www.w3.org/2000/svg" xml:space="preserve" width="297mm" height="210mm" version="1.1" style="shape-rendering:geometricPrecision; text-rendering:geometricPrecision; image-rendering:optimizeQuality; fill-rule:evenodd; clip-rule:evenodd"
viewBox="0 0 29700 21000"
 xmlns:xlink="http://www.w3.org/1999/xlink"
 xmlns:xodm="http://www.corel.com/coreldraw/odm/2003"
 enable-background="new 0 0 512 512">
 <defs>
  <style type="text/css">
   <![CDATA[
    .fil0 {fill:black;fill-rule:nonzero}
    .fil1 {fill:url(#id0);fill-rule:nonzero}
   ]]>
  </style>
  <linearGradient id="id0" gradientUnits="userSpaceOnUse" x1="791.73" y1="10707.82" x2="29030.02" y2="10707.82">
   <stop offset="0" style="stop-opacity:1; stop-color:#C00000"/>
   <stop offset="1" style="stop-opacity:1; stop-color:#E60000"/>
  </linearGradient>
 </defs>
 <g id="Слой_x0020_1">
  <metadata id="CorelCorpID_0Corel-Layer"/>
  <g id="_1709069831024">
   <g>
    <path class="fil0" d="M19822.9 6205.33l-2841.06 0c-2.99,0 -5.89,0.27 -8.84,0.45 -104.11,-97.73 -215.98,-188.47 -335.27,-271.02 -71.76,-49.6 -170.11,-31.67 -219.76,40.01 -49.62,71.72 -31.72,170.13 40.01,219.76 697.6,482.62 1114.06,1276.46 1114.06,2123.5 0,1422.77 -1157.53,2580.29 -2580.3,2580.29 -1422.75,0 -2580.27,-1157.52 -2580.27,-2580.29 0,-1422.75 1157.53,-2580.27 2580.27,-2580.27 282.44,0 560.01,45.3 824.99,134.64 82.68,27.95 172.28,-16.53 200.11,-99.18 27.88,-82.66 -16.53,-172.26 -99.18,-200.12 -297.58,-100.34 -609.1,-151.22 -925.93,-151.22 -1596.94,0 -2896.15,1299.2 -2896.15,2896.15 0,1596.95 1299.21,2896.17 2896.15,2896.17 1596.95,0 2896.17,-1299.22 2896.17,-2896.17 0,-660.1 -225.5,-1291.26 -625.27,-1796.82l2560.27 0c145.16,0 263.23,118.07 263.23,263.23l0 4970.94 -1249.22 0c-87.25,0 -157.95,70.69 -157.95,157.94 0,87.24 70.7,157.94 157.95,157.94l1249.22 -0.01 0 829.45c0,145.16 -118.07,263.23 -263.23,263.23l-9623.72 0c-145.15,0 -263.23,-118.07 -263.23,-263.23l0 -829.45 8105.53 0c87.25,0 157.94,-70.69 157.94,-157.94 0,-87.25 -70.69,-157.94 -157.94,-157.94l-8105.53 0.01 0 -4970.94c0,-145.16 118.08,-263.23 263.23,-263.23l1883.43 0c87.25,0 157.94,-70.7 157.94,-157.94 0,-87.25 -70.69,-157.94 -157.94,-157.94l-1883.43 0c-319.32,0 -579.1,259.8 -579.1,579.11l0 6116.24c0,319.31 259.78,579.1 579.1,579.1l3461.94 0.01 0 1234.32 -476.81 0c-87.25,0 -157.94,70.69 -157.94,157.94 0,87.25 70.69,157.94 157.94,157.94l3614.85 -0.01c87.25,0 157.94,-70.69 157.94,-157.94 0,-87.25 -70.69,-157.94 -157.94,-157.94l-476.81 0.01 0 -1234.32 3500.55 0c319.33,0 579.11,-259.8 579.11,-579.11l0 -6116.23c0,-319.32 -259.78,-579.11 -579.11,-579.11l0 -0.01zm-3816.4 8508.79l-2029.51 0 0 -1234.32 2029.51 0.01 0 1234.31z"/>
    <path class="fil0" d="M13866.39 7056.43c-33.69,-178.55 -190.03,-308.19 -371.77,-308.19l-168.88 0c-87.25,0 -157.95,70.69 -157.95,157.94 0,87.25 70.7,157.94 157.95,157.94l168.89 -0.01c30,0 55.8,21.4 61.36,50.9l467.42 2475.72c14.08,74.61 79.28,128.63 155.2,128.63l106.55 0c-46.65,52.14 -75.26,120.77 -75.26,196.25 0,162.77 131.97,294.75 294.75,294.75 162.79,0 294.76,-131.97 294.76,-294.75 0,-75.48 -28.6,-144.1 -75.26,-196.25l649.73 0c-46.65,52.14 -75.26,120.77 -75.26,196.25 0,162.77 131.97,294.75 294.76,294.75 162.79,0 294.76,-131.97 294.76,-294.75 0,-75.48 -28.6,-144.1 -75.26,-196.25l142.11 0c87.24,0 157.94,-70.7 157.94,-157.94 0,-87.25 -70.7,-157.94 -157.94,-157.94l-1645.53 0 -64.44 -341.3 1765.08 0c75.9,0 141.03,-53.95 155.18,-128.54l280.33 -1478.87c0.17,-0.95 0.36,-1.89 0.51,-2.84 9.41,-55.28 -5.9,-111.55 -42.06,-154.4 -36.16,-42.85 -89.05,-67.43 -145.13,-67.43l-2359.75 0 -32.79 -173.67zm235.56 1247.65l430.89 0 32.33 442.23 -379.7 0 -83.52 -442.23zm1127.85 0l-32.32 442.23 -315.59 0 -32.32 -442.23 380.23 0zm-403.31 -315.88l-32.32 -442.2 491.03 0 -32.32 442.2 -426.39 0zm687.73 758.11l32.32 -442.23 416.62 0 -83.83 442.23 -365.11 0zm508.83 -758.11l-453.41 0 32.32 -442.2 504.92 0 -83.83 442.2zm-1545.62 -442.2l32.32 442.2 -467.44 0 -83.5 -442.2 518.62 0z"/>
    <path class="fil0" d="M10648.8 10628.18l934.18 0c87.25,0 157.94,-70.7 157.94,-157.94 0,-87.25 -70.69,-157.95 -157.94,-157.95l-934.18 0.01c-87.25,0 -157.94,70.7 -157.94,157.94 0,87.25 70.69,157.94 157.94,157.94l0 0z"/>
    <path class="fil0" d="M10648.8 11340.56l1743.09 0c87.25,0 157.94,-70.69 157.94,-157.94 0,-87.24 -70.69,-157.94 -157.94,-157.94l-1743.09 0c-87.25,0 -157.94,70.7 -157.94,157.94 0,87.25 70.69,157.94 157.94,157.94z"/>
    <path class="fil0" d="M18989.55 7117.08c-87.24,0 -157.94,70.69 -157.94,157.94l0 395.29 -395.28 -0.01c-87.25,0 -157.94,70.7 -157.94,157.94 0,87.25 70.69,157.94 157.94,157.94l395.29 0 0 395.29c0,87.25 70.69,157.94 157.94,157.94 87.25,0 157.94,-70.69 157.94,-157.94l0 -395.29 395.26 0c87.25,0 157.94,-70.69 157.94,-157.94 0,-87.24 -70.69,-157.94 -157.94,-157.94l-395.27 0 0 -395.29c0,-87.22 -70.71,-157.94 -157.94,-157.94l0 0.01z"/>
   </g>
  </g>
  <path class="fil1" d="M1356.6 5253.08l27673.42 -3354.66 -2491.03 14027.19 -22149.28 3591.61 -3597.98 -14195.66 564.87 -68.48zm26453.54 -2200.4l-25771.5 3124.11 3094.73 12210.13 20545.26 -3331.51 2131.51 -12002.73z"/>
 </g>
</svg>
